<svg xmlns="http://www.w3.org/2000/svg" width="14" height="14.219" viewBox="0 0 14 14.219">
  <metadata><?xpacket begin="﻿" id="W5M0MpCehiHzreSzNTczkc9d"?>
<x:xmpmeta xmlns:x="adobe:ns:meta/" x:xmptk="Adobe XMP Core 5.6-c138 79.159824, 2016/09/14-01:09:01        ">
   <rdf:RDF xmlns:rdf="http://www.w3.org/1999/02/22-rdf-syntax-ns#">
      <rdf:Description rdf:about=""/>
   </rdf:RDF>
</x:xmpmeta>
                                                                                                    
                                                                                                    
                                                                                                    
                                                                                                    
                                                                                                    
                                                                                                    
                                                                                                    
                                                                                                    
                                                                                                    
                                                                                                    
                                                                                                    
                                                                                                    
                                                                                                    
                                                                                                    
                                                                                                    
                                                                                                    
                                                                                                    
                                                                                                    
                                                                                                    
                                                                                                    
                           
<?xpacket end="w"?></metadata>
<defs>
    <style>
      .cls-1 {
        fill: #0670eb;
        fill-rule: evenodd;
      }
    </style>
  </defs>
  <path id="time" class="cls-1" d="M1370,325.333v-0.889a0.5,0.5,0,0,0,.02-0.121,7.971,7.971,0,0,1,.14-0.973,7.073,7.073,0,0,1,5.62-5.463c0.26-.042.52-0.073,0.78-0.109h0.88a0.6,0.6,0,0,0,.1.022,6.652,6.652,0,0,1,1.2.2,7.059,7.059,0,0,1,5.15,5.664c0.05,0.259.07,0.521,0.11,0.781v0.889a0.518,0.518,0,0,0-.02.121,6.4,6.4,0,0,1-.45,1.98,6.917,6.917,0,0,1-5.34,4.459c-0.25.049-.5,0.072-0.75,0.107h-0.88a0.721,0.721,0,0,0-.1-0.023,6.833,6.833,0,0,1-.97-0.144,7.065,7.065,0,0,1-5.38-5.705C1370.07,325.864,1370.04,325.6,1370,325.333Zm6.99,4.889a5.333,5.333,0,1,0-5.24-5.359A5.3,5.3,0,0,0,1376.99,330.222Zm0.45-3.555c-0.43,0-.86,0-1.29,0a0.876,0.876,0,0,1-.9-0.92v-2.638a0.874,0.874,0,0,1,1.71-.27,1.112,1.112,0,0,1,.04.315v1.61c0,0.108.03,0.129,0.13,0.128,0.53,0,1.05,0,1.58,0a0.89,0.89,0,1,1,0,1.778h-1.27Z" transform="translate(-1370 -317.781)"/>
</svg>
